<svg width="63" height="51" viewBox="0 0 63 51" fill="none" xmlns="http://www.w3.org/2000/svg">
<g clip-path="url(#clip0)">
<path d="M31.5 -0.0540771C14.0943 -0.0540771 -0.0689087 11.4082 -0.0689087 25.5001C-0.0689087 39.592 14.0943 51.0543 31.5 51.0543C48.9057 51.0543 63.0689 39.592 63.0689 25.5001C63.0689 11.4082 48.9057 -0.0540771 31.5 -0.0540771ZM31.5 49.3522C15.2539 49.3522 2.03765 38.6517 2.03765 25.5001C2.03765 12.3485 15.2539 1.64805 31.5 1.64805C47.7461 1.64805 60.9623 12.3485 60.9623 25.5001C60.9623 38.6517 47.7461 49.3522 31.5 49.3522Z" fill="#3F94AE"/>
<path d="M38.3906 11.1563H33.138C26.4482 11.1021 25.5938 14.4538 25.5938 18.0812V20.7188H22.6406C22.5072 20.7044 22.3714 20.7151 22.2438 20.75C22.1163 20.7849 22.0004 20.8432 21.9052 20.9203C21.8099 20.9974 21.738 21.0912 21.6948 21.1945C21.6516 21.2977 21.6384 21.4076 21.6563 21.5157V26.2969C21.6384 26.405 21.6516 26.5149 21.6948 26.6182C21.738 26.7214 21.8099 26.8153 21.9052 26.8923C22.0004 26.9694 22.1163 27.0277 22.2438 27.0626C22.3714 27.0976 22.5072 27.1082 22.6406 27.0938H25.5938V39.0469C25.5774 39.1552 25.5917 39.265 25.6358 39.3681C25.6799 39.4712 25.7524 39.5647 25.848 39.6416C25.9435 39.7185 26.0595 39.7767 26.1871 39.8117C26.3147 39.8468 26.4504 39.8577 26.5841 39.8438H32.5986C33.1794 39.898 33.6499 39.5171 33.4648 39.0469L33.4688 27.0938H38.3906C38.5241 27.1082 38.6599 27.0976 38.7875 27.0626C38.915 27.0277 39.0309 26.9694 39.1261 26.8923C39.2214 26.8153 39.2933 26.7214 39.3365 26.6182C39.3797 26.5149 39.3929 26.405 39.375 26.2969V21.5157C39.3929 21.4076 39.3797 21.2977 39.3365 21.1945C39.2933 21.0912 39.2214 20.9974 39.1261 20.9203C39.0309 20.8432 38.915 20.7849 38.7875 20.75C38.6599 20.7151 38.5241 20.7044 38.3906 20.7188H33.4629L33.4688 18.3282C33.6597 17.3098 33.6597 17.4755 34.8272 17.5313H38.3493C38.623 17.4819 38.9143 17.509 39.1191 17.348C39.3238 17.1871 39.442 16.9671 39.3731 16.7344V11.9532C39.3912 11.8452 39.3784 11.7353 39.3354 11.632C39.2925 11.5288 39.2207 11.4349 39.1257 11.3578C39.0306 11.2807 38.9148 11.2224 38.7873 11.1874C38.6598 11.1525 38.5241 11.1418 38.3906 11.1563ZM37.3374 15.8483L34.8686 15.7718C31.8111 15.7718 31.5551 17.1153 31.5551 18.4908L31.5473 21.5125C31.547 21.6244 31.574 21.7352 31.6267 21.8387C31.6795 21.9421 31.7569 22.0361 31.8545 22.1153C31.9522 22.1945 32.0681 22.2574 32.1958 22.3002C32.3235 22.3431 32.4604 22.3652 32.5986 22.3652H37.4063V25.4443H32.6025C32.3235 25.4443 32.0559 25.5339 31.8584 25.6935C31.661 25.853 31.5498 26.0695 31.5492 26.2953L31.5473 38.2501H27.5625V26.2969C27.5625 25.8268 27.1668 25.4459 26.5841 25.4459H23.625V22.3668H26.5841C26.7222 22.3669 26.859 22.345 26.9867 22.3024C27.1144 22.2597 27.2305 22.1971 27.3282 22.1181C27.5251 21.9572 27.5606 21.7404 27.5606 21.5141V18.0796C27.5606 14.5064 28.4524 12.8043 33.1361 12.8043H37.3354V15.8483H37.3374Z" fill="#3F94AE"/>
</g>
<defs>
<clipPath id="clip0">
<rect width="63" height="51" fill="white"/>
</clipPath>
</defs>
</svg>
