<svg width="63" height="51" viewBox="0 0 63 51" fill="none" xmlns="http://www.w3.org/2000/svg">
<g clip-path="url(#clip0)">
<path d="M38.4202 19.0487C37.0854 19.0487 36.097 19.3212 35.3233 19.6655C35.1993 19.3085 34.7918 19.0471 34.3114 19.1252H28.4366C27.8559 19.0471 27.3853 19.428 27.5645 19.9221V37.4533C27.3853 37.8996 27.8559 38.2821 28.4366 38.2502H34.3114C34.8922 38.2821 35.3627 37.8996 35.3627 37.4294L35.3607 26.8342C35.3588 26.8294 35.3371 26.3226 35.7328 25.9736C36.0498 25.6962 36.5951 25.5544 37.3492 25.5544C38.6052 25.5544 39.1644 25.9704 39.373 26.9011V37.4294C39.1663 37.8996 39.6369 38.2821 40.2176 38.2502H46.4094C46.9901 38.2821 47.4607 37.8996 47.252 37.4294V26.5473C47.4587 21.0138 42.59 19.0487 38.4202 19.0487ZM45.3561 36.6565H41.2689V26.9011C41.2689 25.0189 39.7668 23.8523 37.3511 23.8523C35.9848 23.8523 34.9217 24.1774 34.1893 24.8181C33.1715 25.7106 33.2502 26.8421 33.4688 27.094V36.6565H29.488V20.7508H33.2601V21.2863C33.2585 21.4459 33.3126 21.6025 33.4161 21.7382C33.5196 21.874 33.6683 21.9834 33.8451 22.0538C34.022 22.1242 34.2198 22.1528 34.4158 22.1363C34.6118 22.1198 34.7981 22.0588 34.9532 21.9605L35.2288 21.7884C36.0262 21.28 36.8511 20.7524 38.4221 20.7524C40.0483 20.7524 45.358 21.1716 45.358 26.5489V36.6565H45.3561Z" fill="#3F94AE"/>
<path d="M21.6563 11.1022C19.4473 11.1022 17.6518 12.5557 17.6518 14.3439C17.6518 16.132 19.4473 17.5855 21.6563 17.5855C23.8652 17.5855 25.6607 16.132 25.6607 14.3439C25.6607 12.5557 23.8652 11.1022 21.6563 11.1022ZM21.6563 15.8834C20.6089 15.8834 19.7544 15.1917 19.7544 14.3439C19.7544 13.496 20.6089 12.8043 21.6563 12.8043C22.7036 12.8043 23.5581 13.496 23.5581 14.3439C23.5581 15.1917 22.7036 15.8834 21.6563 15.8834Z" fill="#3F94AE"/>
<path d="M24.4676 19.0471H18.6244C18.0436 19.0471 17.5731 19.428 17.7187 19.9221V37.4533C17.5731 37.8996 18.0436 38.2821 18.6244 38.2502H24.4676C25.0484 38.2821 25.5189 37.8996 25.5189 37.4294V19.8982C25.5189 19.6725 25.4082 19.456 25.211 19.2964C25.0139 19.1368 24.7465 19.0471 24.4676 19.0471ZM23.625 36.6565H19.6757V20.7508H23.625V36.6565Z" fill="#3F94AE"/>
<path d="M31.5 -0.0540771C14.0923 -0.0540771 -0.0669327 11.4082 -0.0669327 25.5001C-0.0669327 39.592 14.0923 51.0543 31.5 51.0543C48.9077 51.0543 63.0669 39.592 63.0669 25.5001C63.0669 11.4082 48.9077 -0.0540771 31.5 -0.0540771ZM31.5 49.3522C15.2539 49.3522 2.03569 38.6517 2.03569 25.5001C2.03569 12.3485 15.2539 1.64805 31.5 1.64805C47.7461 1.64805 60.9643 12.3485 60.9643 25.5001C60.9643 38.6517 47.7461 49.3522 31.5 49.3522Z" fill="#3F94AE"/>
</g>
<defs>
<clipPath id="clip0">
<rect width="63" height="51" fill="white"/>
</clipPath>
</defs>
</svg>
