<svg width="63" height="51" viewBox="0 0 63 51" fill="none" xmlns="http://www.w3.org/2000/svg">
<path d="M63 9.56253V41.4375C63 43.2464 61.297 44.625 59.0625 44.625H55.125V15.6969L31.5 29.435L7.875 15.6969V44.625H3.9375C1.70297 44.625 0 43.2464 0 41.4375V9.56253C0 8.65728 0.421313 7.86041 1.12809 7.29622C1.4962 6.99808 1.93459 6.76289 2.41722 6.60464C2.89985 6.44638 3.41685 6.3683 3.9375 6.37503H5.25066L31.5 21.7818L57.7493 6.37503H59.0625C60.1808 6.37503 61.1651 6.7161 61.8719 7.29622C62.5787 7.86041 63 8.65728 63 9.56253Z" fill="white" fill-opacity="0.50"/>
</svg>
