<svg width="63" height="51" viewBox="0 0 63 51" fill="none" xmlns="http://www.w3.org/2000/svg">
<g clip-path="url(#clip0)">
<path d="M4.12448e-05 24.7366C4.12448e-05 10.5172 13.7498 0 31.5 0C49.2503 0 63 10.5172 63 24.7366C63 38.9481 49.2503 49.4732 31.5 49.4732C28.3205 49.4732 25.2552 49.1321 22.3946 48.493C21.8356 48.3699 21.2411 48.4082 20.7133 48.6014L14.4369 50.8342C14.0582 50.9705 13.6439 51.0291 13.2306 51.005C12.8172 50.9808 12.4176 50.8747 12.067 50.6959C11.7163 50.5171 11.4255 50.2712 11.2201 49.9798C11.0147 49.6885 10.901 49.3607 10.8892 49.0253L10.7041 44.4768C10.6923 44.2033 10.6126 43.9346 10.4699 43.6865C10.3271 43.4385 10.1243 43.2162 9.87332 43.0328C6.71519 40.7271 4.20079 37.9026 2.4979 34.7479C0.795012 31.5931 -0.0572184 28.1807 -0.00192751 24.7382L4.12448e-05 24.7366ZM21.8414 20.0797L12.602 31.9834C11.6787 33.1038 13.4427 34.4075 14.7558 33.5771L24.7019 27.4762C25.0285 27.2701 25.4307 27.1582 25.8448 27.1582C26.2589 27.1582 26.6611 27.2701 26.9877 27.4762L34.3291 31.9419C34.8524 32.2563 35.4501 32.48 36.0848 32.5991C36.7196 32.7182 37.3778 32.7303 38.0186 32.6344C38.6593 32.5386 39.2688 32.3369 39.8091 32.042C40.3493 31.7471 40.8088 31.3653 41.1587 30.9203L50.3981 19.0166C51.3214 17.8962 49.5574 16.618 48.2443 17.4229L38.2981 23.5238C37.9771 23.7296 37.5796 23.8415 37.17 23.8415C36.7605 23.8415 36.363 23.7296 36.0419 23.5238L28.6906 19.0581C28.1681 18.7383 27.5691 18.51 26.9317 18.3878C26.2942 18.2656 25.6324 18.2521 24.9882 18.3482C24.344 18.4443 23.7315 18.6478 23.1898 18.9459C22.648 19.244 22.1888 19.6301 21.8414 20.0797V20.0797Z" fill="white" fill-opacity="0.50"/>
</g>
<defs>
<clipPath id="clip0">
<rect width="63" height="51" fill="white"/>
</clipPath>
</defs>
</svg>
