<svg width="63" height="51" viewBox="0 0 63 51" fill="none" xmlns="http://www.w3.org/2000/svg">
<g clip-path="url(#clip0)">
<path d="M31.5 -0.0540771C14.0943 -0.0540771 -0.0689125 11.4082 -0.0689125 25.5001C-0.0689125 39.592 14.0943 51.0543 31.5 51.0543C48.9057 51.0543 63.0689 39.592 63.0689 25.5001C63.0689 11.4082 48.9057 -0.0540771 31.5 -0.0540771ZM31.5 49.3522C15.2539 49.3522 2.03765 38.6517 2.03765 25.5001C2.03765 12.3485 15.2539 1.64805 31.5 1.64805C47.7461 1.64805 60.9623 12.3485 60.9623 25.5001C60.9623 38.6517 47.7461 49.3522 31.5 49.3522Z" fill="#3F94AE"/>
<path d="M48.8132 17.6047C49.0316 17.2774 49.2115 16.9343 49.3507 16.5799C49.4151 16.4155 49.4164 16.2391 49.3544 16.0741C49.2924 15.9091 49.1701 15.7631 49.0035 15.6556C48.8369 15.548 48.634 15.4839 48.4214 15.4716C48.2089 15.4594 47.9968 15.4996 47.8131 15.587C46.8043 16.0721 45.7122 16.4336 44.5725 16.6596C43.189 15.6488 41.3922 15.0884 39.5286 15.0865C38.5161 15.0872 37.5142 15.2533 36.5829 15.575C35.6516 15.8966 34.8102 16.3672 34.109 16.9585C33.4078 17.5498 32.8614 18.2496 32.5024 19.016C32.1433 19.7824 31.9792 20.5995 32.0198 21.4185C27.5921 20.9673 23.5489 19.1536 20.729 16.3536C20.6209 16.2475 20.4829 16.1641 20.3265 16.1105C20.1701 16.0568 20 16.0345 19.8307 16.0455C19.6615 16.0564 19.4979 16.1003 19.354 16.1734C19.2102 16.2464 19.0902 16.3465 19.0044 16.4651C18.3586 17.3623 18.0077 18.3784 17.9849 19.4166C17.9622 20.4548 18.2684 21.4803 18.8744 22.3955C18.7258 22.4158 18.583 22.4579 18.4531 22.5198C18.2939 22.602 18.1629 22.7153 18.072 22.8492C17.9812 22.9832 17.9335 23.1336 17.9334 23.2864C17.9334 25.0953 18.9276 26.756 20.5301 27.8844L20.4612 27.9401C20.3402 28.0509 20.257 28.1853 20.2197 28.3301C20.1824 28.4749 20.1924 28.625 20.2486 28.7657C20.5828 29.6096 21.1407 30.3842 21.8835 31.0353C22.6262 31.6864 23.5357 32.1982 24.5484 32.5349C22.4685 33.3563 20.141 33.6766 17.8428 33.4577C17.6065 33.4382 17.369 33.4827 17.1673 33.5842C16.9657 33.6858 16.8113 33.8386 16.7285 34.0187C16.6489 34.2002 16.6474 34.3981 16.7242 34.5804C16.8011 34.7626 16.9517 34.9185 17.1518 35.0228C20.2762 36.6461 23.911 37.5085 27.6235 37.5074C39.7904 37.5074 47.063 29.5068 47.063 21.7723L47.061 21.511C48.2402 20.7657 49.2644 19.8726 50.0949 18.8653C50.2206 18.7131 50.2825 18.5321 50.2712 18.3491C50.26 18.1662 50.1763 17.991 50.0325 17.8496C49.8887 17.7082 49.6925 17.608 49.4729 17.5639C49.2533 17.5198 49.022 17.5341 48.8132 17.6047ZM45.3777 20.4017C45.2349 20.4849 45.12 20.5957 45.0437 20.724C44.9673 20.8524 44.9319 20.9942 44.9407 21.1364C44.9525 21.3468 44.9584 21.5604 44.9584 21.7707C44.9584 28.6685 38.4753 35.8037 27.6255 35.8037C25.6904 35.8044 23.769 35.5415 21.9417 35.026C24.1302 34.6864 26.186 33.9267 27.9366 32.8106C28.107 32.7019 28.2317 32.5532 28.2938 32.3848C28.3558 32.2165 28.3521 32.0367 28.2831 31.8702C28.2142 31.7036 28.0834 31.5584 27.9086 31.4543C27.7338 31.3502 27.5235 31.2923 27.3066 31.2886C26.4577 31.2755 25.6245 31.101 24.8742 30.7794C24.1239 30.4577 23.4775 29.9977 22.9871 29.4367C23.4852 29.4096 23.9735 29.3426 24.4479 29.2391C24.6776 29.1893 24.8796 29.078 25.0211 28.9234C25.1625 28.7687 25.235 28.5798 25.2268 28.3875C25.2186 28.1952 25.1301 28.0108 24.9758 27.8644C24.8215 27.718 24.6104 27.6183 24.3771 27.5815C23.4183 27.4237 22.5307 27.0578 21.809 26.523C21.0873 25.9882 20.5589 25.3046 20.2801 24.5455C20.8038 24.6522 21.3413 24.7144 21.8787 24.7287C22.3414 24.7271 22.7706 24.4976 22.9143 24.1375C23.058 23.7773 22.8887 23.3804 22.4969 23.17C21.5706 22.6704 20.8573 21.9515 20.4546 21.1114C20.0518 20.2714 19.9792 19.3512 20.2466 18.4765C23.6664 21.317 28.2842 23.0085 33.1774 23.2131C33.5239 23.2147 33.8271 23.1143 34.0377 22.9087C34.2484 22.7031 34.3291 22.4305 34.2543 22.1692C33.985 21.2305 34.1055 20.2461 34.597 19.3683C35.0885 18.4906 35.9236 17.7685 36.9732 17.3137C38.0227 16.859 39.2282 16.6969 40.403 16.8526C41.5778 17.0084 42.6564 17.4732 43.472 18.1752C43.5942 18.2808 43.7476 18.3595 43.9178 18.4038C44.0879 18.4481 44.2692 18.4567 44.4445 18.4286C44.7694 18.376 45.0903 18.3155 45.4073 18.2454C45.2644 18.332 45.1158 18.4123 44.9623 18.486C44.7582 18.5873 44.6027 18.7418 44.5216 18.9241C44.4404 19.1064 44.4384 19.3057 44.5159 19.4891C44.5934 19.6725 44.7458 19.829 44.9479 19.9329C45.15 20.0368 45.3898 20.0819 45.6278 20.0606L45.9861 20.024C45.7888 20.1556 45.5859 20.2815 45.3777 20.4017Z" fill="#3F94AE"/>
</g>
<defs>
<clipPath id="clip0">
<rect width="63" height="51" fill="white"/>
</clipPath>
</defs>
</svg>
